<svg xmlns="http://www.w3.org/2000/svg" viewBox="0 0 64 64" width="64" height="64">
  <rect width="64" height="64" rx="14" fill="#0b2529"/>
  <g transform="translate(0 0) scale(1)"><path d="M13 39c7-16 17-22 30-17 7 3 10 10 7 17-4 10-20 14-31 7-8-5-7-16 0-24 8-9 23-10 31-2" fill="none" stroke="#c7e3e5" stroke-width="2.6" stroke-linecap="round"/>
  <path d="M20 39c4-9 11-13 19-10 5 2 6 7 4 11-3 6-12 8-18 4-5-3-4-10 1-14" fill="none" stroke="#c7e3e5" stroke-width="2.6" stroke-linecap="round"/>
  <circle cx="34" cy="36" r="4.5" fill="#d3e86f"/></g>
</svg>
